<svg id="svg" version="1.1" xmlns="http://www.w3.org/2000/svg" xmlns:xlink="http://www.w3.org/1999/xlink" width="400" height="400" viewBox="0, 0, 400,400"><g id="svgg"><path id="path0" d="M233.105 76.448 C 233.589 76.541,234.380 76.541,234.863 76.448 C 235.347 76.354,234.951 76.278,233.984 76.278 C 233.018 76.278,232.622 76.354,233.105 76.448 M210.728 80.788 C 210.887 81.072,210.300 84.675,209.424 88.796 C 206.681 101.697,205.769 105.955,205.062 109.180 C 204.685 110.898,203.837 114.854,203.178 117.969 C 202.518 121.084,201.516 125.654,200.951 128.125 C 199.198 135.783,198.882 137.293,199.005 137.416 C 199.119 137.530,201.305 135.899,208.594 130.263 C 213.948 126.123,220.070 121.523,226.758 116.615 C 233.792 111.452,239.006 107.356,239.040 106.965 C 239.073 106.582,235.522 103.309,231.055 99.606 C 227.475 96.638,225.481 94.797,218.576 88.086 C 213.044 82.710,210.456 80.304,210.728 80.788 M255.584 106.150 C 257.259 106.223,259.896 106.223,261.444 106.149 C 262.991 106.075,261.621 106.015,258.398 106.016 C 255.176 106.016,253.909 106.077,255.584 106.150 M148.633 166.614 C 147.129 167.556,144.668 168.974,143.164 169.764 C 141.660 170.555,138.232 172.442,135.547 173.959 C 132.861 175.476,129.550 177.277,128.188 177.961 L 125.713 179.205 127.016 180.181 C 127.734 180.718,128.936 181.467,129.688 181.844 C 130.439 182.222,131.143 182.638,131.250 182.769 C 131.443 183.005,131.867 183.257,134.697 184.820 C 135.487 185.257,137.363 186.384,138.867 187.325 C 140.371 188.267,143.496 190.122,145.811 191.448 C 148.127 192.774,149.935 193.945,149.830 194.050 C 149.725 194.155,148.933 194.614,148.070 195.070 C 147.207 195.526,143.553 197.555,139.950 199.579 C 136.346 201.603,132.901 203.513,132.294 203.822 C 130.362 204.806,125.958 207.811,126.447 207.812 C 126.707 207.812,127.566 207.373,128.357 206.836 C 129.149 206.299,130.036 205.859,130.328 205.859 C 130.620 205.859,130.859 205.673,130.859 205.446 C 130.859 205.218,131.062 205.157,131.310 205.311 C 131.610 205.496,131.654 205.416,131.442 205.072 C 131.207 204.693,131.301 204.624,131.792 204.812 C 132.161 204.953,132.366 204.914,132.249 204.724 C 132.132 204.534,132.287 204.282,132.595 204.164 C 132.917 204.040,133.206 204.214,133.276 204.575 C 133.383 205.120,133.473 205.108,133.984 204.478 C 134.321 204.063,134.363 203.881,134.082 204.050 C 133.813 204.211,133.594 204.176,133.594 203.971 C 133.594 203.447,134.638 203.108,135.449 203.369 C 135.981 203.541,136.013 203.504,135.592 203.204 C 134.922 202.727,136.458 201.746,137.178 202.191 C 137.421 202.341,137.515 202.293,137.386 202.084 C 137.184 201.758,145.943 196.484,146.685 196.484 C 146.831 196.484,147.416 196.156,147.987 195.754 C 148.557 195.353,149.424 194.900,149.914 194.748 L 150.804 194.471 150.768 204.495 C 150.735 213.718,150.679 214.500,150.073 214.289 C 149.463 214.077,149.463 214.099,150.079 214.580 C 150.497 214.905,150.704 215.525,150.635 216.241 C 150.574 216.869,150.688 217.712,150.887 218.114 C 151.167 218.678,151.130 218.776,150.723 218.545 C 150.298 218.303,150.290 218.347,150.684 218.771 C 150.952 219.060,151.172 219.838,151.172 220.500 C 151.172 221.706,152.876 222.947,159.180 226.334 C 159.824 226.680,160.615 227.123,160.938 227.318 C 161.605 227.722,168.760 231.802,172.152 233.713 C 173.396 234.413,175.000 235.333,175.716 235.755 C 176.431 236.178,179.722 238.105,183.027 240.039 C 188.960 243.510,193.360 246.197,199.364 250.018 L 202.439 251.975 204.442 250.447 C 206.427 248.933,211.756 245.623,220.199 240.660 C 222.608 239.244,227.354 236.436,230.746 234.419 C 238.790 229.637,242.966 227.195,248.353 224.124 L 252.760 221.611 252.756 208.210 C 252.754 200.840,252.681 194.738,252.594 194.652 C 252.508 194.565,251.766 195.426,250.945 196.564 C 249.652 198.356,245.806 203.004,242.446 206.836 C 241.881 207.480,239.985 209.678,238.234 211.719 C 236.482 213.760,234.326 216.235,233.443 217.219 C 232.559 218.203,230.781 220.208,229.492 221.674 C 228.203 223.139,226.973 224.531,226.758 224.767 C 226.543 225.003,225.400 226.327,224.219 227.711 C 223.037 229.095,221.719 230.598,221.289 231.050 C 218.756 233.720,209.478 244.149,205.915 248.332 C 202.818 251.968,202.110 251.668,200.638 246.094 C 200.099 244.053,199.111 240.449,198.443 238.086 C 197.775 235.723,196.441 230.765,195.479 227.069 C 193.791 220.583,190.996 210.316,187.365 197.266 L 186.441 193.945 168.904 193.945 L 151.367 193.945 151.367 179.394 C 151.367 171.391,151.367 164.857,151.367 164.872 C 151.367 164.888,150.137 165.672,148.633 166.614 M131.950 208.467 C 132.337 208.623,132.349 208.797,132.000 209.218 C 131.647 209.642,131.666 209.772,132.081 209.793 C 132.376 209.808,132.267 209.957,131.839 210.125 C 130.787 210.535,133.267 211.893,134.863 211.782 C 135.596 211.730,135.938 211.895,135.938 212.298 C 135.938 212.624,136.212 212.891,136.546 212.891 C 136.881 212.891,137.048 213.064,136.917 213.277 C 136.775 213.506,136.950 213.558,137.348 213.406 C 137.803 213.231,137.928 213.295,137.736 213.605 C 137.581 213.857,137.640 214.063,137.868 214.063 C 138.095 214.063,138.281 213.640,138.281 213.123 C 138.281 212.406,138.112 212.227,137.570 212.368 C 136.873 212.551,136.036 211.905,135.971 211.133 C 135.952 210.918,135.718 210.742,135.449 210.742 C 135.181 210.742,134.961 210.495,134.961 210.193 C 134.961 209.892,134.652 209.600,134.275 209.544 C 133.898 209.489,133.689 209.604,133.810 209.800 C 133.931 209.996,133.750 210.156,133.408 210.156 C 132.894 210.156,132.863 210.011,133.228 209.328 C 133.499 208.823,133.515 208.597,133.269 208.748 C 133.048 208.885,132.756 208.818,132.621 208.600 C 132.486 208.382,132.166 208.217,131.911 208.234 C 131.591 208.255,131.604 208.328,131.950 208.467 M135.771 208.854 C 135.661 209.141,135.811 209.375,136.103 209.375 C 136.396 209.375,136.725 209.141,136.835 208.854 C 136.945 208.568,136.796 208.333,136.503 208.333 C 136.210 208.333,135.881 208.568,135.771 208.854 M137.711 210.501 C 137.495 211.465,137.323 211.677,137.073 211.282 C 136.801 210.854,136.729 210.883,136.725 211.426 C 136.721 211.802,136.899 212.109,137.119 212.109 C 137.592 212.109,138.373 210.228,138.157 209.609 C 138.075 209.373,137.874 209.774,137.711 210.501 M139.838 210.461 C 139.833 211.038,139.778 211.050,139.453 210.547 C 139.226 210.195,139.072 210.147,139.068 210.426 C 139.065 210.682,139.238 211.000,139.453 211.133 C 140.079 211.520,139.904 212.109,139.160 212.115 C 138.577 212.120,138.563 212.176,139.063 212.493 C 139.441 212.734,139.697 212.726,139.784 212.471 C 139.871 212.217,140.109 212.234,140.451 212.517 C 141.013 212.984,141.797 212.719,141.797 212.063 C 141.797 211.848,141.663 211.755,141.500 211.856 C 141.336 211.957,140.884 211.808,140.496 211.523 C 139.841 211.045,139.837 210.980,140.445 210.640 C 141.041 210.306,141.043 210.250,140.472 210.031 C 140.046 209.868,139.842 210.006,139.838 210.461 M138.953 214.078 C 139.068 214.516,139.189 214.824,139.223 214.762 C 139.256 214.699,139.519 214.341,139.807 213.965 C 140.265 213.366,140.231 213.281,139.538 213.281 C 138.932 213.281,138.794 213.469,138.953 214.078 M143.597 213.993 C 143.488 214.170,143.470 214.879,143.557 215.568 C 143.651 216.304,143.562 216.727,143.342 216.591 C 143.137 216.464,142.969 216.526,142.969 216.728 C 142.969 217.362,144.480 217.525,144.963 216.943 C 145.334 216.495,145.299 216.436,144.782 216.634 C 144.351 216.800,144.141 216.674,144.141 216.253 C 144.141 215.680,144.603 215.443,145.439 215.588 C 145.616 215.619,145.642 215.452,145.497 215.217 C 145.352 214.983,144.988 214.885,144.687 215.000 C 144.197 215.188,143.965 214.783,144.094 213.965 C 144.156 213.574,143.846 213.592,143.597 213.993 M141.256 214.659 C 140.410 215.505,140.461 215.911,141.455 216.226 C 142.353 216.511,142.944 215.930,142.795 214.910 C 142.666 214.037,141.989 213.926,141.256 214.659 M142.088 215.687 C 141.396 216.114,140.963 215.648,141.508 215.062 C 141.852 214.691,142.071 214.666,142.265 214.974 C 142.414 215.213,142.335 215.534,142.088 215.687 M145.919 216.509 C 146.063 216.888,145.964 217.459,145.699 217.778 C 145.398 218.142,145.371 218.359,145.629 218.359 C 146.259 218.359,146.622 216.778,146.109 216.269 C 145.767 215.930,145.721 215.988,145.919 216.509 M148.438 217.211 C 148.438 217.438,148.254 217.511,148.030 217.372 C 147.806 217.234,147.366 217.333,147.053 217.592 C 146.396 218.138,146.292 219.141,146.892 219.141 C 147.116 219.141,147.248 218.833,147.185 218.457 C 147.109 218.004,147.323 217.773,147.820 217.772 C 148.232 217.771,148.642 217.551,148.731 217.283 C 148.820 217.016,148.791 216.797,148.665 216.797 C 148.540 216.797,148.438 216.983,148.438 217.211 M82.031 307.031 L 82.031 334.766 93.359 334.766 L 104.688 334.766 104.688 329.297 L 104.688 323.828 100.391 323.828 L 96.094 323.828 96.094 301.563 L 96.094 279.297 89.063 279.297 L 82.031 279.297 82.031 307.031 M109.375 307.031 L 109.375 334.766 120.703 334.766 L 132.031 334.766 132.031 329.297 L 132.031 323.828 127.734 323.828 L 123.438 323.828 123.438 301.563 L 123.438 279.297 116.406 279.297 L 109.375 279.297 109.375 307.031 M173.047 307.031 L 173.047 334.766 179.102 334.766 L 185.156 334.766 185.183 316.504 C 185.199 305.355,185.346 298.546,185.560 299.023 C 185.753 299.453,186.973 307.275,188.269 316.406 C 189.566 325.537,190.718 333.403,190.829 333.887 C 191.023 334.732,191.194 334.766,195.273 334.766 L 199.515 334.766 199.903 332.129 C 200.116 330.679,201.221 322.461,202.359 313.867 C 203.496 305.273,204.574 298.075,204.753 297.871 C 204.932 297.667,205.078 305.885,205.078 316.133 L 205.078 334.766 211.133 334.766 L 217.188 334.766 217.188 307.031 L 217.188 279.297 208.034 279.297 C 199.651 279.297,198.864 279.354,198.686 279.980 C 198.579 280.356,197.835 286.025,197.033 292.578 C 196.232 299.131,195.463 304.625,195.324 304.788 C 195.186 304.950,194.405 300.292,193.589 294.436 C 192.773 288.580,191.929 282.778,191.714 281.543 L 191.323 279.297 182.185 279.297 L 173.047 279.297 173.047 307.031 M228.125 279.570 C 228.125 279.902,221.166 332.645,220.958 333.887 L 220.811 334.766 228.133 334.766 L 235.455 334.766 235.710 331.738 C 235.850 330.073,236.066 327.788,236.191 326.660 L 236.418 324.609 239.079 324.609 L 241.741 324.609 241.953 326.660 C 242.069 327.788,242.273 330.073,242.405 331.738 L 242.645 334.766 249.881 334.766 L 257.118 334.766 256.886 333.496 C 256.646 332.179,248.828 279.759,248.828 279.464 C 248.828 279.372,244.170 279.297,238.477 279.297 C 232.783 279.297,228.125 279.420,228.125 279.570 M147.852 288.688 C 139.237 289.871,135.557 294.452,135.549 304.004 L 135.547 306.641 141.992 306.641 L 148.438 306.641 148.438 302.031 C 148.438 296.942,148.620 296.484,150.650 296.484 C 152.251 296.484,152.695 297.249,152.976 300.490 C 153.440 305.848,152.860 306.462,143.934 310.053 C 136.304 313.124,135.741 313.990,135.745 322.656 C 135.748 331.273,136.971 333.535,142.388 334.946 C 146.296 335.964,149.289 335.119,151.752 332.302 L 153.516 330.287 153.516 332.526 L 153.516 334.766 159.988 334.766 L 166.460 334.766 166.307 316.113 C 166.132 294.942,166.208 295.492,163.051 292.312 C 160.027 289.265,154.043 287.839,147.852 288.688 M240.246 302.734 C 240.674 307.568,241.130 312.271,241.260 313.184 L 241.495 314.844 238.854 314.844 L 236.213 314.844 236.467 311.816 C 237.343 301.348,239.083 289.711,239.344 292.578 C 239.412 293.330,239.818 297.900,240.246 302.734 M153.060 319.472 C 152.919 326.605,152.708 327.349,150.831 327.338 C 148.876 327.326,148.643 326.878,148.497 322.840 C 148.308 317.639,148.560 316.654,150.600 314.614 C 153.198 312.016,153.208 312.035,153.060 319.472 " stroke="none" fill="#fb9423" fill-rule="evenodd"></path><path id="path1" d="M231.181 38.965 C 230.862 39.341,229.667 41.758,228.525 44.336 C 225.627 50.881,211.832 78.915,211.125 79.696 C 210.597 80.279,211.223 80.993,217.824 87.338 C 221.828 91.187,225.564 94.799,226.126 95.365 C 226.688 95.931,228.906 97.846,231.055 99.619 C 235.488 103.279,239.073 106.578,239.040 106.965 C 239.006 107.356,233.792 111.452,226.758 116.615 C 220.070 121.523,213.948 126.123,208.594 130.263 C 202.872 134.687,199.352 137.251,196.801 138.851 C 193.263 141.070,189.396 143.359,189.187 143.359 C 189.089 143.359,188.241 143.887,187.305 144.531 C 186.368 145.176,185.516 145.703,185.411 145.703 C 185.306 145.703,183.404 146.781,181.184 148.097 C 176.338 150.972,167.673 155.989,165.234 157.331 C 164.268 157.863,163.125 158.499,162.695 158.743 C 162.266 158.988,159.495 160.570,156.538 162.259 L 151.162 165.330 151.265 179.637 L 151.367 193.945 168.904 193.945 L 186.441 193.945 187.365 197.266 C 190.996 210.316,193.791 220.583,195.479 227.069 C 196.441 230.765,197.775 235.723,198.443 238.086 C 199.111 240.449,200.099 244.053,200.638 246.094 C 202.110 251.668,202.818 251.968,205.915 248.332 C 209.478 244.149,218.756 233.720,221.289 231.050 C 221.719 230.598,223.037 229.095,224.219 227.711 C 225.400 226.327,226.543 225.003,226.758 224.767 C 226.973 224.531,228.203 223.139,229.492 221.674 C 230.781 220.208,232.559 218.203,233.443 217.219 C 234.326 216.235,236.482 213.760,238.234 211.719 C 239.985 209.678,241.881 207.480,242.446 206.836 C 245.806 203.004,249.652 198.356,250.945 196.564 C 251.766 195.426,252.512 194.570,252.604 194.661 C 252.696 194.753,252.759 200.738,252.745 207.961 C 252.731 215.184,252.784 221.094,252.864 221.094 C 252.943 221.094,254.660 220.193,256.680 219.093 C 258.699 217.992,261.823 216.307,263.622 215.347 C 265.421 214.387,268.154 212.871,269.696 211.977 C 273.092 210.007,274.977 209.069,275.854 208.909 C 276.502 208.791,273.680 199.708,270.114 190.430 C 269.536 188.926,268.130 185.059,266.990 181.836 C 265.849 178.613,263.394 171.846,261.534 166.797 C 259.674 161.748,256.553 153.223,254.599 147.852 C 252.644 142.480,249.907 135.010,248.515 131.250 C 246.193 124.973,242.165 113.572,240.799 109.411 C 239.714 106.103,238.747 106.384,252.331 106.061 C 263.386 105.798,264.447 105.714,264.646 105.086 C 265.524 102.318,267.050 93.829,266.791 93.148 C 265.956 90.953,261.990 87.684,256.824 84.932 C 255.327 84.134,253.838 83.263,253.516 82.997 C 253.193 82.731,252.143 82.117,251.182 81.633 C 250.220 81.150,247.671 79.643,245.518 78.286 L 241.602 75.817 237.891 76.179 C 235.850 76.378,232.510 76.543,230.469 76.546 L 226.758 76.551 228.165 75.287 C 230.138 73.515,230.647 72.490,231.220 69.141 C 231.496 67.529,232.135 63.926,232.640 61.133 C 233.146 58.340,234.036 53.418,234.619 50.195 C 235.202 46.973,235.889 43.193,236.145 41.797 C 236.549 39.597,236.530 39.193,236.004 38.770 C 235.071 38.018,231.875 38.147,231.181 38.965 M125.781 193.558 C 125.781 204.895,125.882 207.798,126.270 207.565 C 126.538 207.403,127.725 206.646,128.906 205.882 C 130.088 205.118,132.032 203.965,133.226 203.321 C 134.420 202.676,137.902 200.742,140.963 199.023 C 144.024 197.305,147.228 195.526,148.084 195.070 C 148.939 194.614,149.725 194.155,149.830 194.050 C 149.935 193.945,148.127 192.774,145.811 191.448 C 143.496 190.122,140.371 188.267,138.867 187.325 C 137.363 186.384,135.487 185.257,134.697 184.820 C 131.867 183.257,131.443 183.005,131.250 182.769 C 131.143 182.638,130.439 182.222,129.688 181.844 C 128.936 181.467,127.749 180.730,127.051 180.207 L 125.781 179.257 125.781 193.558 M270.978 312.271 C 266.879 313.383,266.020 315.284,266.020 323.242 C 266.020 331.976,267.158 334.144,272.145 334.907 C 277.540 335.733,281.241 332.539,281.248 327.051 L 281.250 325.391 278.320 325.391 L 275.391 325.391 275.391 327.702 C 275.391 330.625,275.144 331.250,273.989 331.250 C 272.704 331.250,272.611 330.608,272.740 322.656 L 272.852 315.820 273.828 315.820 C 274.753 315.820,274.811 315.949,274.921 318.262 L 275.037 320.703 278.144 320.703 L 281.250 320.703 281.233 319.238 C 281.170 313.830,276.621 310.740,270.978 312.271 M294.383 312.119 C 293.764 312.306,292.841 312.851,292.332 313.329 L 291.406 314.199 291.406 313.154 L 291.406 312.109 288.086 312.109 L 284.766 312.109 284.766 325.000 L 284.766 337.891 288.086 337.891 L 291.406 337.891 291.406 335.283 L 291.406 332.676 292.320 333.535 C 294.335 335.428,297.414 335.435,298.999 333.551 C 300.227 332.093,300.528 329.221,300.327 320.891 L 300.171 314.444 299.011 313.314 C 297.706 312.041,296.050 311.614,294.383 312.119 M313.523 312.119 C 312.904 312.306,311.981 312.851,311.472 313.329 L 310.547 314.199 310.547 313.154 L 310.547 312.109 307.227 312.109 L 303.906 312.109 303.906 325.000 L 303.906 337.891 307.227 337.891 L 310.547 337.891 310.547 335.283 L 310.547 332.676 311.461 333.535 C 313.476 335.428,316.555 335.435,318.140 333.551 C 319.367 332.093,319.668 329.221,319.467 320.891 L 319.312 314.444 318.152 313.314 C 316.846 312.041,315.190 311.614,313.523 312.119 M293.504 316.504 C 293.813 317.659,293.809 329.233,293.498 330.392 C 293.327 331.030,293.018 331.257,292.430 331.173 C 291.627 331.058,290.886 317.935,291.580 316.126 C 291.903 315.284,293.248 315.549,293.504 316.504 M312.644 316.504 C 312.954 317.659,312.949 329.233,312.639 330.392 C 312.468 331.030,312.158 331.257,311.570 331.173 C 310.767 331.058,310.026 317.935,310.721 316.126 C 311.044 315.284,312.388 315.549,312.644 316.504 M258.203 332.031 L 258.203 334.766 260.742 334.766 L 263.281 334.766 263.281 332.031 L 263.281 329.297 260.742 329.297 L 258.203 329.297 258.203 332.031 " stroke="none" fill="#d24b06" fill-rule="evenodd"></path><path id="path2" d="M0.000 200.000 L 0.000 400.000 200.000 400.000 L 400.000 400.000 400.000 200.000 L 400.000 0.000 200.000 0.000 L 0.000 0.000 0.000 200.000 M236.393 38.581 C 236.837 39.025,236.607 40.966,235.365 47.266 C 235.047 48.877,234.353 52.876,233.823 56.152 C 233.293 59.428,232.778 62.240,232.678 62.402 C 232.578 62.563,232.200 64.716,231.836 67.185 C 231.103 72.169,230.990 72.467,229.024 74.644 L 227.643 76.172 230.773 76.172 C 232.494 76.172,235.698 75.988,237.893 75.762 C 241.327 75.410,242.000 75.437,242.719 75.961 C 246.040 78.377,250.430 81.067,256.641 84.491 C 262.142 87.525,266.366 90.939,267.106 92.949 C 267.413 93.784,266.562 98.715,264.971 105.322 C 264.775 106.139,264.571 106.157,252.698 106.440 C 239.115 106.763,240.036 106.492,241.249 109.814 C 241.592 110.754,242.890 114.424,244.133 117.969 C 247.273 126.923,249.306 132.516,250.969 136.784 C 252.489 140.682,253.135 142.426,254.993 147.656 C 255.642 149.482,257.252 153.877,258.571 157.422 C 261.356 164.904,264.075 172.403,267.000 180.664 C 268.142 183.887,269.630 187.930,270.308 189.648 C 270.986 191.367,272.325 195.059,273.284 197.852 C 277.211 209.283,277.231 209.375,275.788 209.375 C 275.388 209.375,272.981 210.547,270.440 211.980 C 267.899 213.414,264.590 215.237,263.086 216.033 C 259.312 218.030,254.868 220.523,252.539 221.949 C 251.465 222.606,250.059 223.432,249.414 223.784 C 247.959 224.578,233.246 233.112,231.491 234.180 C 230.785 234.609,227.761 236.417,224.772 238.196 C 221.782 239.975,219.072 241.600,218.750 241.806 C 218.428 242.012,217.373 242.627,216.406 243.173 C 215.439 243.719,213.857 244.682,212.891 245.312 C 211.924 245.942,210.430 246.835,209.570 247.296 C 208.711 247.757,206.767 249.060,205.251 250.192 L 202.494 252.249 199.196 250.160 C 193.525 246.567,177.714 237.082,176.625 236.619 C 176.053 236.376,175.322 235.970,175.000 235.717 C 174.678 235.464,173.623 234.814,172.656 234.271 C 171.689 233.728,168.350 231.838,165.234 230.071 C 162.119 228.304,158.779 226.411,157.813 225.864 C 156.846 225.318,155.527 224.558,154.883 224.176 C 154.238 223.795,152.480 222.789,150.977 221.941 C 149.473 221.093,146.892 219.633,145.243 218.696 C 139.870 215.644,138.134 214.675,134.961 212.956 C 133.242 212.024,130.386 210.472,128.613 209.506 L 125.391 207.749 125.394 193.425 L 125.397 179.102 127.640 177.904 C 133.187 174.941,145.992 167.809,146.875 167.190 C 147.412 166.813,148.906 165.959,150.195 165.292 C 151.484 164.625,153.418 163.571,154.492 162.949 C 155.566 162.328,159.785 159.925,163.867 157.611 C 167.949 155.296,173.398 152.169,175.977 150.663 C 181.028 147.712,182.627 146.778,189.295 142.889 C 195.460 139.293,198.817 136.999,198.823 136.376 C 198.826 136.081,199.515 132.829,200.356 129.150 C 201.196 125.471,202.533 119.385,203.326 115.625 C 204.120 111.865,204.999 107.910,205.279 106.836 C 205.559 105.762,206.167 102.949,206.631 100.586 C 207.094 98.223,208.178 92.997,209.040 88.974 C 209.901 84.951,210.497 81.319,210.365 80.902 C 210.233 80.485,210.327 80.019,210.575 79.865 C 211.121 79.528,224.799 51.906,228.041 44.597 C 231.021 37.875,231.129 37.751,233.838 37.976 C 235.008 38.073,236.158 38.345,236.393 38.581 M96.484 301.563 L 96.484 323.828 100.781 323.828 L 105.078 323.828 105.078 329.297 L 105.078 334.766 93.359 334.766 L 81.641 334.766 81.641 307.031 L 81.641 279.297 89.063 279.297 L 96.484 279.297 96.484 301.563 M123.828 301.563 L 123.828 323.828 128.125 323.828 L 132.422 323.828 132.422 329.297 L 132.422 334.766 120.703 334.766 L 108.984 334.766 108.984 307.031 L 108.984 279.297 116.406 279.297 L 123.828 279.297 123.828 301.563 M191.614 279.785 C 191.715 280.054,192.562 285.635,193.497 292.188 C 194.747 300.948,195.266 303.740,195.459 302.734 C 195.705 301.449,198.437 280.222,198.437 279.590 C 198.437 279.429,202.744 279.297,208.008 279.297 L 217.578 279.297 217.578 307.031 L 217.578 334.766 211.133 334.766 L 204.688 334.766 204.648 317.090 L 204.608 299.414 202.206 316.992 L 199.805 334.570 195.257 334.680 L 190.709 334.790 190.248 331.555 C 189.994 329.776,188.849 321.992,187.705 314.258 L 185.623 300.195 185.585 317.480 L 185.547 334.766 179.102 334.766 L 172.656 334.766 172.656 307.031 L 172.656 279.297 182.044 279.297 C 189.195 279.297,191.474 279.413,191.614 279.785 M253.141 307.129 L 257.261 334.766 249.768 334.766 L 242.275 334.766 241.991 329.671 L 241.708 324.576 239.116 324.690 L 236.523 324.805 236.133 329.688 L 235.742 334.570 228.171 334.677 L 220.601 334.783 220.823 333.309 C 220.946 332.499,222.563 320.234,224.418 306.055 C 226.272 291.875,227.861 280.051,227.948 279.779 C 228.071 279.392,230.395 279.307,238.563 279.388 L 249.020 279.492 253.141 307.129 M159.015 289.410 C 166.172 292.138,166.770 294.450,166.787 319.434 L 166.797 334.766 159.961 334.766 L 153.125 334.766 153.125 333.018 L 153.125 331.271 151.407 332.989 C 146.593 337.802,137.347 335.559,135.934 329.235 C 135.158 325.762,135.551 316.148,136.539 314.453 C 137.408 312.962,141.365 310.743,147.638 308.231 C 152.557 306.261,152.839 305.874,152.674 301.316 C 152.530 297.330,151.999 296.307,150.208 296.567 C 148.910 296.756,148.449 298.341,148.443 302.637 L 148.438 306.641 141.944 306.641 L 135.451 306.641 135.623 302.051 C 135.872 295.388,137.876 291.970,142.810 289.787 C 146.757 288.042,154.927 287.851,159.015 289.410 M238.684 293.791 C 238.674 294.317,238.175 298.736,236.517 312.988 L 236.301 314.844 238.781 314.844 L 241.260 314.844 240.784 310.645 C 240.522 308.335,240.089 303.721,239.821 300.391 C 239.411 295.293,238.730 291.341,238.684 293.791 M278.443 312.992 C 280.213 314.163,281.065 315.806,281.378 318.652 L 281.604 320.703 278.370 320.703 L 275.137 320.703 274.776 318.262 C 274.517 316.513,274.248 315.820,273.828 315.820 C 273.327 315.820,273.242 316.927,273.242 323.438 C 273.242 330.794,273.269 331.055,274.023 331.055 C 274.722 331.055,274.817 330.756,274.919 328.223 L 275.034 325.391 278.331 325.391 L 281.629 325.391 281.393 327.832 C 280.684 335.185,271.279 338.150,267.058 332.352 C 265.306 329.947,265.217 317.335,266.934 314.750 C 269.009 311.625,274.996 310.710,278.443 312.992 M299.156 313.041 L 300.195 314.080 300.195 323.438 L 300.195 332.795 299.156 333.834 C 297.601 335.389,294.826 335.563,292.871 334.227 L 291.406 333.227 291.406 335.559 L 291.406 337.891 287.891 337.891 L 284.375 337.891 284.375 325.000 L 284.375 312.109 287.891 312.109 C 291.128 312.109,291.406 312.170,291.406 312.879 C 291.406 313.603,291.492 313.590,292.871 312.648 C 294.826 311.312,297.601 311.486,299.156 313.041 M318.296 313.041 L 319.336 314.080 319.336 323.438 L 319.336 332.795 318.296 333.834 C 316.741 335.389,313.967 335.563,312.012 334.227 L 310.547 333.227 310.547 335.559 L 310.547 337.891 307.031 337.891 L 303.516 337.891 303.516 325.000 L 303.516 312.109 307.031 312.109 C 310.269 312.109,310.547 312.170,310.547 312.879 C 310.547 313.603,310.633 313.590,312.012 312.648 C 313.967 311.312,316.741 311.486,318.296 313.041 M150.641 314.834 C 146.895 318.980,148.330 330.520,152.121 326.730 C 152.808 326.043,153.063 313.281,152.389 313.281 C 152.199 313.281,151.413 313.980,150.641 314.834 M291.651 316.224 C 291.273 317.207,291.374 330.203,291.763 330.819 C 291.956 331.122,292.390 331.256,292.742 331.121 C 293.700 330.753,293.495 315.894,292.530 315.709 C 292.181 315.641,291.785 315.873,291.651 316.224 M310.791 316.224 C 310.414 317.207,310.514 330.203,310.904 330.819 C 311.096 331.122,311.530 331.256,311.883 331.121 C 312.841 330.753,312.636 315.894,311.670 315.709 C 311.321 315.641,310.926 315.873,310.791 316.224 M263.281 332.031 L 263.281 334.766 260.547 334.766 L 257.813 334.766 257.813 332.031 L 257.813 329.297 260.547 329.297 L 263.281 329.297 263.281 332.031 " stroke="none" fill="#fbfbfb" fill-rule="evenodd"></path><path id="path3" d="M233.301 38.160 C 233.677 38.258,234.292 38.258,234.668 38.160 C 235.044 38.062,234.736 37.981,233.984 37.981 C 233.232 37.981,232.925 38.062,233.301 38.160 M216.583 68.396 C 216.239 69.060,216.027 69.673,216.112 69.758 C 216.197 69.843,216.559 69.299,216.916 68.550 C 217.719 66.865,217.441 66.736,216.583 68.396 M213.848 73.864 C 213.505 74.529,213.293 75.142,213.378 75.227 C 213.463 75.311,213.824 74.768,214.181 74.019 C 214.985 72.334,214.706 72.205,213.848 73.864 M212.072 77.441 C 211.613 78.354,210.950 79.450,210.599 79.876 C 209.995 80.609,209.999 80.621,210.675 80.096 C 211.368 79.558,213.491 75.781,213.100 75.781 C 212.994 75.781,212.531 76.528,212.072 77.441 M264.844 90.430 C 265.573 91.182,266.257 91.797,266.364 91.797 C 266.472 91.797,265.963 91.182,265.234 90.430 C 264.506 89.678,263.821 89.063,263.714 89.063 C 263.607 89.063,264.115 89.678,264.844 90.430 M149.219 195.058 C 139.703 200.146,137.131 201.672,137.383 202.080 C 137.514 202.292,137.422 202.342,137.178 202.191 C 136.458 201.746,134.922 202.727,135.592 203.204 C 136.013 203.504,135.981 203.541,135.449 203.369 C 134.638 203.108,133.594 203.447,133.594 203.971 C 133.594 204.176,133.813 204.211,134.082 204.050 C 134.363 203.881,134.321 204.063,133.984 204.478 C 133.462 205.122,133.385 205.131,133.273 204.557 C 133.131 203.833,130.859 204.700,130.859 205.479 C 130.859 205.688,130.620 205.859,130.328 205.859 C 130.036 205.859,129.149 206.299,128.357 206.836 C 127.566 207.373,126.619 207.818,126.252 207.825 C 125.886 207.832,126.465 208.221,127.539 208.689 C 128.613 209.157,129.551 209.678,129.622 209.848 C 129.849 210.384,130.469 210.181,130.469 209.570 C 130.469 209.248,130.628 208.984,130.823 208.984 C 131.018 208.984,131.090 209.316,130.984 209.722 C 130.878 210.127,131.010 210.594,131.276 210.758 C 131.589 210.952,131.662 210.898,131.483 210.607 C 131.311 210.330,131.477 210.154,131.911 210.150 C 132.456 210.146,132.496 210.068,132.087 209.808 C 131.681 209.551,131.668 209.404,132.031 209.180 C 132.394 208.955,132.381 208.808,131.975 208.551 C 131.621 208.326,131.599 208.213,131.911 208.209 C 132.166 208.206,132.486 208.382,132.621 208.600 C 132.756 208.818,133.048 208.885,133.269 208.748 C 133.515 208.597,133.499 208.823,133.228 209.328 C 132.863 210.011,132.894 210.156,133.408 210.156 C 133.750 210.156,133.931 209.996,133.810 209.800 C 133.689 209.604,133.898 209.489,134.275 209.544 C 134.652 209.600,134.961 209.892,134.961 210.193 C 134.961 210.495,135.181 210.742,135.449 210.742 C 136.325 210.742,136.157 211.520,135.254 211.648 C 134.771 211.717,134.375 211.899,134.375 212.052 C 134.375 212.443,136.717 213.788,136.725 213.401 C 136.728 213.228,136.882 213.324,137.067 213.616 C 137.293 213.974,137.487 214.009,137.662 213.725 C 137.812 213.482,137.502 213.199,136.930 213.055 C 136.384 212.918,135.938 212.540,135.938 212.215 C 135.938 211.735,136.048 211.715,136.518 212.105 C 136.838 212.370,137.386 212.478,137.735 212.343 C 138.253 212.145,138.340 212.311,138.205 213.235 C 138.033 214.406,139.737 215.979,140.599 215.446 C 140.798 215.323,141.067 215.393,141.196 215.602 C 141.688 216.397,142.589 215.595,142.142 214.760 C 141.812 214.141,141.834 214.010,142.247 214.148 C 142.857 214.351,142.963 215.146,142.505 216.090 C 142.320 216.471,142.351 216.852,142.577 216.992 C 142.792 217.125,142.969 217.037,142.969 216.797 C 142.969 216.557,143.137 216.464,143.343 216.592 C 143.566 216.729,143.647 216.273,143.543 215.463 C 143.448 214.715,143.547 213.993,143.765 213.858 C 143.982 213.724,144.135 213.759,144.104 213.936 C 143.959 214.770,144.190 215.191,144.687 215.000 C 144.988 214.885,145.352 214.983,145.497 215.217 C 145.642 215.452,145.616 215.619,145.439 215.588 C 144.603 215.443,144.141 215.680,144.141 216.253 C 144.141 216.674,144.351 216.800,144.782 216.634 C 145.310 216.432,145.339 216.490,144.943 216.966 C 144.680 217.284,144.583 217.736,144.728 217.971 C 145.151 218.656,146.180 217.559,145.947 216.670 C 145.800 216.105,145.862 216.018,146.183 216.339 C 146.503 216.659,146.504 217.029,146.187 217.724 C 145.636 218.933,146.072 219.431,146.656 218.259 C 146.897 217.777,147.352 217.383,147.668 217.383 C 147.984 217.383,148.387 217.207,148.565 216.992 C 148.758 216.759,148.823 216.837,148.728 217.186 C 148.641 217.507,148.247 217.771,147.853 217.772 C 146.300 217.775,146.907 219.424,148.850 220.482 C 149.863 221.033,150.800 221.484,150.932 221.484 C 151.376 221.484,151.177 219.302,150.684 218.771 C 150.290 218.347,150.298 218.303,150.723 218.545 C 151.130 218.776,151.167 218.678,150.887 218.114 C 150.688 217.712,150.574 216.869,150.635 216.241 C 150.704 215.525,150.497 214.905,150.079 214.580 C 149.463 214.099,149.463 214.077,150.073 214.289 C 150.679 214.500,150.735 213.720,150.768 204.525 C 150.788 199.028,150.667 194.532,150.500 194.534 C 150.332 194.535,149.756 194.771,149.219 195.058 M136.835 208.854 C 136.725 209.141,136.396 209.375,136.103 209.375 C 135.811 209.375,135.661 209.141,135.771 208.854 C 135.881 208.568,136.210 208.333,136.503 208.333 C 136.796 208.333,136.945 208.568,136.835 208.854 M137.913 211.074 C 137.469 212.242,136.716 212.465,136.725 211.426 C 136.729 210.883,136.801 210.854,137.073 211.282 C 137.323 211.677,137.495 211.465,137.711 210.501 C 137.874 209.774,138.075 209.373,138.157 209.609 C 138.240 209.845,138.130 210.504,137.913 211.074 M140.445 210.640 C 139.837 210.980,139.841 211.045,140.496 211.523 C 140.884 211.808,141.336 211.957,141.500 211.856 C 141.663 211.755,141.797 211.848,141.797 212.063 C 141.797 212.719,141.013 212.984,140.451 212.517 C 140.109 212.234,139.871 212.217,139.784 212.471 C 139.697 212.726,139.441 212.734,139.063 212.493 C 138.563 212.176,138.577 212.120,139.160 212.115 C 139.904 212.109,140.079 211.520,139.453 211.133 C 139.238 211.000,139.065 210.682,139.068 210.426 C 139.072 210.147,139.226 210.195,139.453 210.547 C 139.778 211.050,139.833 211.038,139.838 210.461 C 139.842 210.006,140.046 209.868,140.472 210.031 C 141.043 210.250,141.041 210.306,140.445 210.640 M139.807 213.965 C 139.519 214.341,139.256 214.699,139.223 214.762 C 139.189 214.824,139.068 214.516,138.953 214.078 C 138.794 213.469,138.932 213.281,139.538 213.281 C 140.231 213.281,140.265 213.366,139.807 213.965 M204.613 297.949 C 204.547 298.110,204.584 306.504,204.695 316.602 L 204.898 334.961 204.988 316.309 C 205.069 299.477,205.018 296.966,204.613 297.949 M166.582 321.289 C 166.582 328.809,166.635 331.829,166.699 328.002 C 166.763 324.175,166.763 318.022,166.698 314.330 C 166.634 310.638,166.582 313.770,166.582 321.289 M284.550 325.000 C 284.550 332.197,284.603 335.142,284.667 331.543 C 284.732 327.944,284.732 322.056,284.667 318.457 C 284.603 314.858,284.550 317.803,284.550 325.000 M303.691 325.000 C 303.691 332.197,303.743 335.142,303.808 331.543 C 303.872 327.944,303.872 322.056,303.808 318.457 C 303.743 314.858,303.691 317.803,303.691 325.000 M293.520 323.438 C 293.520 327.197,293.579 328.735,293.650 326.855 C 293.722 324.976,293.722 321.899,293.650 320.020 C 293.579 318.140,293.520 319.678,293.520 323.438 M312.661 323.438 C 312.661 327.197,312.719 328.735,312.791 326.855 C 312.862 324.976,312.862 321.899,312.791 320.020 C 312.719 318.140,312.661 319.678,312.661 323.438 M104.843 329.297 C 104.843 332.412,104.903 333.687,104.978 332.129 C 105.052 330.571,105.052 328.022,104.978 326.465 C 104.903 324.907,104.843 326.182,104.843 329.297 M132.186 329.297 C 132.186 332.412,132.247 333.687,132.321 332.129 C 132.395 330.571,132.395 328.022,132.321 326.465 C 132.247 324.907,132.186 326.182,132.186 329.297 " stroke="none" fill="#eaab8a" fill-rule="evenodd"></path><path id="path4" d="M240.332 75.660 C 240.708 75.758,241.323 75.758,241.699 75.660 C 242.075 75.562,241.768 75.481,241.016 75.481 C 240.264 75.481,239.956 75.562,240.332 75.660 M227.344 76.250 C 227.344 76.422,228.267 76.542,229.395 76.517 C 231.525 76.470,231.321 76.317,228.809 76.078 C 228.003 76.001,227.344 76.079,227.344 76.250 M236.230 76.057 C 236.714 76.150,237.505 76.150,237.988 76.057 C 238.472 75.964,238.076 75.888,237.109 75.888 C 236.143 75.888,235.747 75.964,236.230 76.057 M240.240 106.934 C 240.245 107.408,240.339 107.471,240.550 107.140 C 240.761 106.808,242.633 106.626,246.696 106.543 L 252.539 106.423 246.387 106.336 C 240.753 106.257,240.235 106.308,240.240 106.934 M125.568 193.359 C 125.568 201.416,125.620 204.712,125.683 200.684 C 125.747 196.655,125.747 190.063,125.683 186.035 C 125.620 182.007,125.568 185.303,125.568 193.359 M139.453 215.414 C 139.453 215.521,140.156 215.968,141.016 216.406 C 141.875 216.845,142.578 217.115,142.578 217.008 C 142.578 216.901,141.875 216.454,141.016 216.016 C 140.156 215.577,139.453 215.306,139.453 215.414 M149.219 220.878 C 149.219 220.986,149.746 221.346,150.391 221.680 C 151.035 222.013,151.563 222.198,151.563 222.090 C 151.563 221.983,151.035 221.622,150.391 221.289 C 149.746 220.956,149.219 220.771,149.219 220.878 M81.826 307.031 C 81.826 322.393,81.874 328.677,81.933 320.996 C 81.993 313.315,81.993 300.747,81.933 293.066 C 81.874 285.386,81.826 291.670,81.826 307.031 M96.277 301.563 C 96.277 313.916,96.326 318.970,96.386 312.793 C 96.447 306.616,96.447 296.509,96.386 290.332 C 96.326 284.155,96.277 289.209,96.277 301.563 M109.170 307.031 C 109.170 322.393,109.218 328.677,109.277 320.996 C 109.336 313.315,109.336 300.747,109.277 293.066 C 109.218 285.386,109.170 291.670,109.170 307.031 M123.620 301.563 C 123.620 313.916,123.670 318.970,123.730 312.793 C 123.791 306.616,123.791 296.509,123.730 290.332 C 123.670 284.155,123.620 289.209,123.620 301.563 M172.841 307.031 C 172.841 322.393,172.890 328.677,172.949 320.996 C 173.008 313.315,173.008 300.747,172.949 293.066 C 172.890 285.386,172.841 291.670,172.841 307.031 M217.373 307.031 C 217.373 322.393,217.421 328.677,217.480 320.996 C 217.540 313.315,217.540 300.747,217.480 293.066 C 217.421 285.386,217.373 291.670,217.373 307.031 M238.678 292.676 C 238.692 293.791,239.441 294.362,239.447 293.262 C 239.450 292.671,239.277 292.188,239.063 292.188 C 238.848 292.188,238.675 292.407,238.678 292.676 M185.258 316.797 L 185.336 334.961 185.539 317.383 C 185.651 307.715,185.616 299.541,185.461 299.219 C 185.306 298.896,185.215 306.807,185.258 316.797 M152.825 301.953 C 152.825 302.705,152.905 303.013,153.004 302.637 C 153.102 302.261,153.102 301.646,153.004 301.270 C 152.905 300.894,152.825 301.201,152.825 301.953 M166.534 305.273 C 166.536 306.777,166.607 307.345,166.691 306.534 C 166.776 305.724,166.774 304.493,166.688 303.800 C 166.602 303.106,166.533 303.770,166.534 305.273 M152.643 316.698 C 152.827 323.485,152.983 324.149,153.055 318.457 C 153.093 315.396,152.993 312.890,152.832 312.890 C 152.671 312.889,152.586 314.603,152.643 316.698 M272.816 323.242 C 272.816 326.895,272.874 328.441,272.947 326.679 C 273.019 324.917,273.019 321.929,272.947 320.039 C 272.876 318.148,272.817 319.590,272.816 323.242 M265.766 323.047 C 265.766 325.088,265.832 325.923,265.912 324.902 C 265.993 323.882,265.993 322.212,265.912 321.191 C 265.832 320.171,265.766 321.006,265.766 323.047 M275.121 327.539 C 275.123 328.828,275.196 329.308,275.283 328.606 C 275.370 327.904,275.368 326.850,275.279 326.263 C 275.190 325.676,275.119 326.250,275.121 327.539 M241.888 328.516 C 241.888 329.268,241.968 329.575,242.066 329.199 C 242.164 328.823,242.164 328.208,242.066 327.832 C 241.968 327.456,241.888 327.764,241.888 328.516 M257.944 332.031 C 257.944 333.643,258.013 334.302,258.097 333.496 C 258.181 332.690,258.181 331.372,258.097 330.566 C 258.013 329.761,257.944 330.420,257.944 332.031 M153.031 332.324 C 153.270 334.836,153.423 335.041,153.470 332.910 C 153.495 331.782,153.375 330.859,153.203 330.859 C 153.032 330.859,152.954 331.519,153.031 332.324 " stroke="none" fill="#fbc7a2" fill-rule="evenodd"></path></g></svg>